<svg xmlns="http://www.w3.org/2000/svg" xmlns:xlink="http://www.w3.org/1999/xlink" width="500" zoomAndPan="magnify" viewBox="0 0 375 83.04" height="100" preserveAspectRatio="xMidYMid meet" version="1.2"><defs/><g id="b46b22bc2e"><g style="fill:#004aad;fill-opacity:1;"><g transform="translate(14.99666, 55.303323)"><path style="stroke:none" d="M 24.921875 0 L 19.96875 0 C 19.5625 0 19.3125 -0.21875 19.21875 -0.65625 L 17.90625 -7.5 L 9.5625 -7.5 L 8.296875 -0.65625 C 8.203125 -0.21875 7.953125 0 7.546875 0 L 2.53125 0 C 1.96875 0 1.765625 -0.265625 1.921875 -0.796875 L 9.703125 -36.828125 C 9.796875 -37.265625 10.0625 -37.484375 10.5 -37.484375 L 17.015625 -37.484375 C 17.453125 -37.484375 17.71875 -37.265625 17.8125 -36.828125 L 25.578125 -0.796875 C 25.671875 -0.265625 25.453125 0 24.921875 0 Z M 16.734375 -12.9375 L 13.734375 -29.28125 L 10.734375 -12.9375 Z M 16.734375 -12.9375 "/></g></g><g style="fill:#004aad;fill-opacity:1;"><g transform="translate(42.452688, 55.303323)"><path style="stroke:none" d="M 21.609375 -30.734375 L 21.609375 -19.3125 C 21.609375 -16.1875 20.46875 -14.125 18.1875 -13.125 L 21.421875 -0.84375 C 21.578125 -0.28125 21.359375 0 20.765625 0 L 15.890625 0 C 15.453125 0 15.1875 -0.21875 15.09375 -0.65625 L 11.953125 -12.5625 L 8.71875 -12.5625 L 8.71875 -0.75 C 8.71875 -0.25 8.46875 0 7.96875 0 L 3.09375 0 C 2.59375 0 2.34375 -0.25 2.34375 -0.75 L 2.34375 -36.734375 C 2.34375 -37.234375 2.59375 -37.484375 3.09375 -37.484375 L 14.859375 -37.484375 C 17.078125 -37.484375 18.753906 -36.910156 19.890625 -35.765625 C 21.035156 -34.628906 21.609375 -32.953125 21.609375 -30.734375 Z M 8.71875 -18.75 L 13.359375 -18.75 C 14.609375 -18.75 15.234375 -19.375 15.234375 -20.625 L 15.234375 -29.421875 C 15.234375 -30.671875 14.609375 -31.296875 13.359375 -31.296875 L 8.71875 -31.296875 Z M 8.71875 -18.75 "/></g></g><g style="fill:#004aad;fill-opacity:1;"><g transform="translate(66.394711, 55.303323)"><path style="stroke:none" d="M 15.84375 -37.484375 L 20.15625 -37.484375 C 20.40625 -37.484375 20.625 -37.390625 20.8125 -37.203125 C 21 -37.015625 21.09375 -36.796875 21.09375 -36.546875 L 21.09375 -6.75 C 21.09375 -4.5625 20.519531 -2.890625 19.375 -1.734375 C 18.238281 -0.578125 16.5625 0 14.34375 0 L 9.09375 0 C 6.90625 0 5.234375 -0.578125 4.078125 -1.734375 C 2.921875 -2.890625 2.34375 -4.5625 2.34375 -6.75 L 2.34375 -36.546875 C 2.34375 -36.796875 2.4375 -37.015625 2.625 -37.203125 C 2.8125 -37.390625 3.03125 -37.484375 3.28125 -37.484375 L 7.78125 -37.484375 C 8.03125 -37.484375 8.25 -37.390625 8.4375 -37.203125 C 8.625 -37.015625 8.71875 -36.796875 8.71875 -36.546875 L 8.71875 -8.0625 C 8.71875 -6.8125 9.34375 -6.1875 10.59375 -6.1875 L 13.03125 -6.1875 C 14.28125 -6.1875 14.90625 -6.8125 14.90625 -8.0625 L 14.90625 -36.546875 C 14.90625 -36.796875 15 -37.015625 15.1875 -37.203125 C 15.375 -37.390625 15.59375 -37.484375 15.84375 -37.484375 Z M 15.84375 -37.484375 "/></g></g><g style="fill:#004aad;fill-opacity:1;"><g transform="translate(89.82135, 55.303323)"><path style="stroke:none" d="M 16.734375 -37.484375 L 21.609375 -37.484375 C 22.109375 -37.484375 22.359375 -37.234375 22.359375 -36.734375 L 22.359375 -0.75 C 22.359375 -0.25 22.109375 0 21.609375 0 L 16.96875 0 C 16.53125 0 16.25 -0.203125 16.125 -0.609375 L 8.953125 -20.625 L 8.71875 -20.625 L 8.71875 -0.75 C 8.71875 -0.25 8.46875 0 7.96875 0 L 3.09375 0 C 2.59375 0 2.34375 -0.25 2.34375 -0.75 L 2.34375 -36.734375 C 2.34375 -37.234375 2.59375 -37.484375 3.09375 -37.484375 L 7.734375 -37.484375 C 8.171875 -37.484375 8.453125 -37.28125 8.578125 -36.875 L 15.703125 -16.96875 L 15.984375 -16.96875 L 15.984375 -36.734375 C 15.984375 -37.234375 16.234375 -37.484375 16.734375 -37.484375 Z M 16.734375 -37.484375 "/></g></g><g style="fill:#004aad;fill-opacity:1;"><g transform="translate(114.513032, 55.303323)"><path style="stroke:none" d="M 2.34375 -0.75 L 2.34375 -36.734375 C 2.34375 -37.234375 2.59375 -37.484375 3.09375 -37.484375 L 14.34375 -37.484375 C 16.5625 -37.484375 18.238281 -36.90625 19.375 -35.75 C 20.519531 -34.59375 21.09375 -32.90625 21.09375 -30.6875 L 21.09375 -6.75 C 21.09375 -4.5625 20.519531 -2.890625 19.375 -1.734375 C 18.238281 -0.578125 16.5625 0 14.34375 0 L 3.09375 0 C 2.59375 0 2.34375 -0.25 2.34375 -0.75 Z M 8.71875 -6.1875 L 13.03125 -6.1875 C 14.28125 -6.1875 14.90625 -6.8125 14.90625 -8.0625 L 14.90625 -29.375 C 14.90625 -30.65625 14.28125 -31.296875 13.03125 -31.296875 L 8.71875 -31.296875 Z M 8.71875 -6.1875 "/></g></g><g style="fill:#004aad;fill-opacity:1;"><g transform="translate(137.939671, 55.303323)"><path style="stroke:none" d="M 21.046875 -36.734375 L 21.046875 -32.046875 C 21.046875 -31.515625 20.796875 -31.25 20.296875 -31.25 L 8.578125 -31.25 L 8.578125 -21.890625 L 17.53125 -21.890625 C 18.03125 -21.890625 18.28125 -21.625 18.28125 -21.09375 L 18.28125 -16.453125 C 18.28125 -15.921875 18.03125 -15.65625 17.53125 -15.65625 L 8.578125 -15.65625 L 8.578125 -6.1875 L 20.296875 -6.1875 C 20.796875 -6.1875 21.046875 -5.9375 21.046875 -5.4375 L 21.046875 -0.75 C 21.046875 -0.25 20.796875 0 20.296875 0 L 3.046875 0 C 2.578125 0 2.34375 -0.25 2.34375 -0.75 L 2.34375 -36.734375 C 2.34375 -37.234375 2.578125 -37.484375 3.046875 -37.484375 L 20.296875 -37.484375 C 20.796875 -37.484375 21.046875 -37.234375 21.046875 -36.734375 Z M 21.046875 -36.734375 "/></g></g><g style="fill:#004aad;fill-opacity:1;"><g transform="translate(161.319454, 55.303323)"><path style="stroke:none" d="M 8.71875 -6.1875 L 8.71875 -36.734375 C 8.71875 -37.234375 8.46875 -37.484375 7.96875 -37.484375 L 3.09375 -37.484375 C 2.59375 -37.484375 2.34375 -37.234375 2.34375 -36.734375 L 2.34375 -0.75 C 2.34375 -0.25 2.59375 0 3.09375 0 L 19.875 0 C 20.375 0 20.625 -0.25 20.625 -0.75 L 20.625 -5.4375 C 20.625 -5.9375 20.375 -6.1875 19.875 -6.1875 Z M 8.71875 -6.1875 "/></g></g><g style="fill:#004aad;fill-opacity:1;"><g transform="translate(184.277567, 55.303323)"><path style="stroke:none" d=""/></g></g><g style="fill:#004aad;fill-opacity:1;"><g transform="translate(195.990887, 55.303323)"><path style="stroke:none" d="M 14.71875 -21.84375 L 14.71875 -36.734375 C 14.71875 -37.234375 14.96875 -37.484375 15.46875 -37.484375 L 20.296875 -37.484375 C 20.828125 -37.484375 21.09375 -37.234375 21.09375 -36.734375 L 21.09375 -0.75 C 21.09375 -0.25 20.828125 0 20.296875 0 L 15.46875 0 C 14.96875 0 14.71875 -0.25 14.71875 -0.75 L 14.71875 -15.65625 L 8.71875 -15.65625 L 8.71875 -0.75 C 8.71875 -0.25 8.46875 0 7.96875 0 L 3.140625 0 C 2.609375 0 2.34375 -0.25 2.34375 -0.75 L 2.34375 -36.734375 C 2.34375 -37.234375 2.609375 -37.484375 3.140625 -37.484375 L 7.96875 -37.484375 C 8.46875 -37.484375 8.71875 -37.234375 8.71875 -36.734375 L 8.71875 -21.84375 Z M 14.71875 -21.84375 "/></g></g><g style="fill:#004aad;fill-opacity:1;"><g transform="translate(219.417516, 55.303323)"><path style="stroke:none" d="M 2.34375 -6.75 L 2.34375 -30.734375 C 2.34375 -32.953125 2.921875 -34.628906 4.078125 -35.765625 C 5.234375 -36.910156 6.90625 -37.484375 9.09375 -37.484375 L 14.34375 -37.484375 C 16.5625 -37.484375 18.238281 -36.910156 19.375 -35.765625 C 20.519531 -34.628906 21.09375 -32.953125 21.09375 -30.734375 L 21.09375 -6.75 C 21.09375 -4.5625 20.519531 -2.890625 19.375 -1.734375 C 18.238281 -0.578125 16.5625 0 14.34375 0 L 9.09375 0 C 6.90625 0 5.234375 -0.578125 4.078125 -1.734375 C 2.921875 -2.890625 2.34375 -4.5625 2.34375 -6.75 Z M 10.453125 -6.046875 L 13.171875 -6.046875 C 14.421875 -6.046875 15.046875 -6.671875 15.046875 -7.921875 L 15.046875 -29.5625 C 15.046875 -30.8125 14.421875 -31.4375 13.171875 -31.4375 L 10.453125 -31.4375 C 9.203125 -31.4375 8.578125 -30.8125 8.578125 -29.5625 L 8.578125 -7.921875 C 8.578125 -6.671875 9.203125 -6.046875 10.453125 -6.046875 Z M 10.453125 -6.046875 "/></g></g><g style="fill:#004aad;fill-opacity:1;"><g transform="translate(242.844156, 55.303323)"><path style="stroke:none" d="M 9.09375 -37.484375 L 14.34375 -37.484375 C 16.5625 -37.484375 18.238281 -36.910156 19.375 -35.765625 C 20.519531 -34.628906 21.09375 -32.953125 21.09375 -30.734375 L 21.09375 -25.765625 C 21.09375 -25.265625 20.84375 -25.015625 20.34375 -25.015625 L 15.46875 -25.015625 C 14.96875 -25.015625 14.71875 -25.265625 14.71875 -25.765625 L 14.71875 -29.421875 C 14.71875 -30.671875 14.09375 -31.296875 12.84375 -31.296875 L 10.59375 -31.296875 C 9.34375 -31.296875 8.71875 -30.671875 8.71875 -29.421875 L 8.71875 -22.96875 L 19.875 -19.3125 C 20.6875 -18.96875 21.09375 -18.390625 21.09375 -17.578125 L 21.09375 -6.75 C 21.09375 -4.5625 20.519531 -2.890625 19.375 -1.734375 C 18.238281 -0.578125 16.5625 0 14.34375 0 L 9.09375 0 C 6.90625 0 5.234375 -0.578125 4.078125 -1.734375 C 2.921875 -2.890625 2.34375 -4.5625 2.34375 -6.75 L 2.34375 -11.671875 C 2.34375 -12.171875 2.59375 -12.421875 3.09375 -12.421875 L 7.96875 -12.421875 C 8.46875 -12.421875 8.71875 -12.171875 8.71875 -11.671875 L 8.71875 -8.0625 C 8.71875 -6.8125 9.34375 -6.1875 10.59375 -6.1875 L 12.84375 -6.1875 C 14.09375 -6.1875 14.71875 -6.8125 14.71875 -8.0625 L 14.71875 -14.296875 L 3.609375 -17.953125 C 2.765625 -18.234375 2.34375 -18.8125 2.34375 -19.6875 L 2.34375 -30.734375 C 2.34375 -32.953125 2.921875 -34.628906 4.078125 -35.765625 C 5.234375 -36.910156 6.90625 -37.484375 9.09375 -37.484375 Z M 9.09375 -37.484375 "/></g></g><g style="fill:#004aad;fill-opacity:1;"><g transform="translate(266.270795, 55.303323)"><path style="stroke:none" d="M 2.34375 -0.75 L 2.34375 -36.734375 C 2.34375 -37.234375 2.59375 -37.484375 3.09375 -37.484375 L 14.34375 -37.484375 C 16.5625 -37.484375 18.238281 -36.910156 19.375 -35.765625 C 20.519531 -34.628906 21.09375 -32.953125 21.09375 -30.734375 L 21.09375 -19.3125 C 21.09375 -17.125 20.519531 -15.453125 19.375 -14.296875 C 18.238281 -13.140625 16.5625 -12.5625 14.34375 -12.5625 L 8.71875 -12.5625 L 8.71875 -0.75 C 8.71875 -0.25 8.46875 0 7.96875 0 L 3.09375 0 C 2.59375 0 2.34375 -0.25 2.34375 -0.75 Z M 8.71875 -18.75 L 12.84375 -18.75 C 14.09375 -18.75 14.71875 -19.375 14.71875 -20.625 L 14.71875 -29.421875 C 14.71875 -30.671875 14.09375 -31.296875 12.84375 -31.296875 L 8.71875 -31.296875 Z M 8.71875 -18.75 "/></g></g><g style="fill:#004aad;fill-opacity:1;"><g transform="translate(289.697435, 55.303323)"><path style="stroke:none" d="M 3.09375 -37.484375 L 7.96875 -37.484375 C 8.46875 -37.484375 8.71875 -37.234375 8.71875 -36.734375 L 8.71875 -0.75 C 8.71875 -0.25 8.46875 0 7.96875 0 L 3.09375 0 C 2.59375 0 2.34375 -0.25 2.34375 -0.75 L 2.34375 -36.734375 C 2.34375 -37.234375 2.59375 -37.484375 3.09375 -37.484375 Z M 3.09375 -37.484375 "/></g></g><g style="fill:#004aad;fill-opacity:1;"><g transform="translate(300.754822, 55.303323)"><path style="stroke:none" d="M 2.15625 -37.484375 L 19.40625 -37.484375 C 19.90625 -37.484375 20.15625 -37.234375 20.15625 -36.734375 L 20.15625 -32.046875 C 20.15625 -31.546875 19.90625 -31.296875 19.40625 -31.296875 L 13.96875 -31.296875 L 13.96875 -0.75 C 13.96875 -0.25 13.71875 0 13.21875 0 L 8.34375 0 C 7.84375 0 7.59375 -0.25 7.59375 -0.75 L 7.59375 -31.296875 L 2.15625 -31.296875 C 1.65625 -31.296875 1.40625 -31.546875 1.40625 -32.046875 L 1.40625 -36.734375 C 1.40625 -37.234375 1.65625 -37.484375 2.15625 -37.484375 Z M 2.15625 -37.484375 "/></g></g><g style="fill:#004aad;fill-opacity:1;"><g transform="translate(318.089982, 55.303323)"><path style="stroke:none" d="M 24.921875 0 L 19.96875 0 C 19.5625 0 19.3125 -0.21875 19.21875 -0.65625 L 17.90625 -7.5 L 9.5625 -7.5 L 8.296875 -0.65625 C 8.203125 -0.21875 7.953125 0 7.546875 0 L 2.53125 0 C 1.96875 0 1.765625 -0.265625 1.921875 -0.796875 L 9.703125 -36.828125 C 9.796875 -37.265625 10.0625 -37.484375 10.5 -37.484375 L 17.015625 -37.484375 C 17.453125 -37.484375 17.71875 -37.265625 17.8125 -36.828125 L 25.578125 -0.796875 C 25.671875 -0.265625 25.453125 0 24.921875 0 Z M 16.734375 -12.9375 L 13.734375 -29.28125 L 10.734375 -12.9375 Z M 16.734375 -12.9375 "/></g></g><g style="fill:#004aad;fill-opacity:1;"><g transform="translate(345.545999, 55.303323)"><path style="stroke:none" d="M 8.71875 -6.1875 L 8.71875 -36.734375 C 8.71875 -37.234375 8.46875 -37.484375 7.96875 -37.484375 L 3.09375 -37.484375 C 2.59375 -37.484375 2.34375 -37.234375 2.34375 -36.734375 L 2.34375 -0.75 C 2.34375 -0.25 2.59375 0 3.09375 0 L 19.875 0 C 20.375 0 20.625 -0.25 20.625 -0.75 L 20.625 -5.4375 C 20.625 -5.9375 20.375 -6.1875 19.875 -6.1875 Z M 8.71875 -6.1875 "/></g></g></g></svg>