<svg xmlns="http://www.w3.org/2000/svg" xmlns:xlink="http://www.w3.org/1999/xlink" width="500" zoomAndPan="magnify" viewBox="0 0 375 374.999991" height="500" preserveAspectRatio="xMidYMid meet" version="1.2"><defs/><g id="aa952c7af4"><g style="fill:#ffffff;fill-opacity:1;"><g transform="translate(20.666039, 203.999987)"><path style="stroke:none" d="M 22.875 0 L 18.3125 0 C 17.945312 0 17.71875 -0.203125 17.625 -0.609375 L 16.421875 -6.875 L 8.765625 -6.875 L 7.609375 -0.609375 C 7.523438 -0.203125 7.296875 0 6.921875 0 L 2.328125 0 C 1.804688 0 1.617188 -0.242188 1.765625 -0.734375 L 8.90625 -33.796875 C 8.988281 -34.203125 9.226562 -34.40625 9.625 -34.40625 L 15.609375 -34.40625 C 16.015625 -34.40625 16.257812 -34.203125 16.34375 -33.796875 L 23.484375 -0.734375 C 23.566406 -0.242188 23.363281 0 22.875 0 Z M 15.34375 -11.875 L 12.59375 -26.875 L 9.84375 -11.875 Z M 15.34375 -11.875 "/></g></g><g style="fill:#ffffff;fill-opacity:1;"><g transform="translate(45.861796, 203.999987)"><path style="stroke:none" d="M 19.828125 -28.203125 L 19.828125 -17.71875 C 19.828125 -14.851562 18.78125 -12.960938 16.6875 -12.046875 L 19.65625 -0.78125 C 19.789062 -0.257812 19.585938 0 19.046875 0 L 14.578125 0 C 14.171875 0 13.925781 -0.203125 13.84375 -0.609375 L 10.96875 -11.53125 L 8 -11.53125 L 8 -0.6875 C 8 -0.226562 7.769531 0 7.3125 0 L 2.84375 0 C 2.382812 0 2.15625 -0.226562 2.15625 -0.6875 L 2.15625 -33.71875 C 2.15625 -34.175781 2.382812 -34.40625 2.84375 -34.40625 L 13.625 -34.40625 C 15.664062 -34.40625 17.207031 -33.878906 18.25 -32.828125 C 19.300781 -31.785156 19.828125 -30.242188 19.828125 -28.203125 Z M 8 -17.203125 L 12.25 -17.203125 C 13.394531 -17.203125 13.96875 -17.773438 13.96875 -18.921875 L 13.96875 -27 C 13.96875 -28.144531 13.394531 -28.71875 12.25 -28.71875 L 8 -28.71875 Z M 8 -17.203125 "/></g></g><g style="fill:#ffffff;fill-opacity:1;"><g transform="translate(67.832837, 203.999987)"><path style="stroke:none" d="M 14.53125 -34.40625 L 18.484375 -34.40625 C 18.710938 -34.40625 18.910156 -34.316406 19.078125 -34.140625 C 19.253906 -33.972656 19.34375 -33.773438 19.34375 -33.546875 L 19.34375 -6.1875 C 19.34375 -4.1875 18.820312 -2.65625 17.78125 -1.59375 C 16.738281 -0.53125 15.195312 0 13.15625 0 L 8.34375 0 C 6.332031 0 4.796875 -0.53125 3.734375 -1.59375 C 2.679688 -2.65625 2.15625 -4.1875 2.15625 -6.1875 L 2.15625 -33.546875 C 2.15625 -33.773438 2.238281 -33.972656 2.40625 -34.140625 C 2.582031 -34.316406 2.785156 -34.40625 3.015625 -34.40625 L 7.140625 -34.40625 C 7.367188 -34.40625 7.566406 -34.316406 7.734375 -34.140625 C 7.910156 -33.972656 8 -33.773438 8 -33.546875 L 8 -7.390625 C 8 -6.242188 8.570312 -5.671875 9.71875 -5.671875 L 11.953125 -5.671875 C 13.097656 -5.671875 13.671875 -6.242188 13.671875 -7.390625 L 13.671875 -33.546875 C 13.671875 -33.773438 13.753906 -33.972656 13.921875 -34.140625 C 14.097656 -34.316406 14.300781 -34.40625 14.53125 -34.40625 Z M 14.53125 -34.40625 "/></g></g><g style="fill:#ffffff;fill-opacity:1;"><g transform="translate(89.330917, 203.999987)"><path style="stroke:none" d="M 15.34375 -34.40625 L 19.828125 -34.40625 C 20.285156 -34.40625 20.515625 -34.175781 20.515625 -33.71875 L 20.515625 -0.6875 C 20.515625 -0.226562 20.285156 0 19.828125 0 L 15.5625 0 C 15.164062 0 14.910156 -0.1875 14.796875 -0.5625 L 8.21875 -18.921875 L 8 -18.921875 L 8 -0.6875 C 8 -0.226562 7.769531 0 7.3125 0 L 2.84375 0 C 2.382812 0 2.15625 -0.226562 2.15625 -0.6875 L 2.15625 -33.71875 C 2.15625 -34.175781 2.382812 -34.40625 2.84375 -34.40625 L 7.09375 -34.40625 C 7.5 -34.40625 7.757812 -34.21875 7.875 -33.84375 L 14.40625 -15.5625 L 14.65625 -15.5625 L 14.65625 -33.71875 C 14.65625 -34.175781 14.882812 -34.40625 15.34375 -34.40625 Z M 15.34375 -34.40625 "/></g></g><g style="fill:#ffffff;fill-opacity:1;"><g transform="translate(111.989897, 203.999987)"><path style="stroke:none" d="M 2.15625 -0.6875 L 2.15625 -33.71875 C 2.15625 -34.175781 2.382812 -34.40625 2.84375 -34.40625 L 13.15625 -34.40625 C 15.195312 -34.40625 16.738281 -33.875 17.78125 -32.8125 C 18.820312 -31.75 19.34375 -30.203125 19.34375 -28.171875 L 19.34375 -6.1875 C 19.34375 -4.1875 18.820312 -2.65625 17.78125 -1.59375 C 16.738281 -0.53125 15.195312 0 13.15625 0 L 2.84375 0 C 2.382812 0 2.15625 -0.226562 2.15625 -0.6875 Z M 8 -5.671875 L 11.953125 -5.671875 C 13.097656 -5.671875 13.671875 -6.242188 13.671875 -7.390625 L 13.671875 -26.96875 C 13.671875 -28.132812 13.097656 -28.71875 11.953125 -28.71875 L 8 -28.71875 Z M 8 -5.671875 "/></g></g><g style="fill:#ffffff;fill-opacity:1;"><g transform="translate(133.487976, 203.999987)"><path style="stroke:none" d="M 19.3125 -33.71875 L 19.3125 -29.40625 C 19.3125 -28.925781 19.082031 -28.6875 18.625 -28.6875 L 7.875 -28.6875 L 7.875 -20.078125 L 16.078125 -20.078125 C 16.535156 -20.078125 16.765625 -19.832031 16.765625 -19.34375 L 16.765625 -15.09375 C 16.765625 -14.601562 16.535156 -14.359375 16.078125 -14.359375 L 7.875 -14.359375 L 7.875 -5.671875 L 18.625 -5.671875 C 19.082031 -5.671875 19.3125 -5.441406 19.3125 -4.984375 L 19.3125 -0.6875 C 19.3125 -0.226562 19.082031 0 18.625 0 L 2.796875 0 C 2.367188 0 2.15625 -0.226562 2.15625 -0.6875 L 2.15625 -33.71875 C 2.15625 -34.175781 2.367188 -34.40625 2.796875 -34.40625 L 18.625 -34.40625 C 19.082031 -34.40625 19.3125 -34.175781 19.3125 -33.71875 Z M 19.3125 -33.71875 "/></g></g><g style="fill:#ffffff;fill-opacity:1;"><g transform="translate(154.943061, 203.999987)"><path style="stroke:none" d="M 8 -5.671875 L 8 -33.71875 C 8 -34.175781 7.769531 -34.40625 7.3125 -34.40625 L 2.84375 -34.40625 C 2.382812 -34.40625 2.15625 -34.175781 2.15625 -33.71875 L 2.15625 -0.6875 C 2.15625 -0.226562 2.382812 0 2.84375 0 L 18.234375 0 C 18.691406 0 18.921875 -0.226562 18.921875 -0.6875 L 18.921875 -4.984375 C 18.921875 -5.441406 18.691406 -5.671875 18.234375 -5.671875 Z M 8 -5.671875 "/></g></g><g style="fill:#ffffff;fill-opacity:1;"><g transform="translate(186.760232, 203.999987)"><path style="stroke:none" d="M 13.5 -20.03125 L 13.5 -33.71875 C 13.5 -34.175781 13.726562 -34.40625 14.1875 -34.40625 L 18.625 -34.40625 C 19.101562 -34.40625 19.34375 -34.175781 19.34375 -33.71875 L 19.34375 -0.6875 C 19.34375 -0.226562 19.101562 0 18.625 0 L 14.1875 0 C 13.726562 0 13.5 -0.226562 13.5 -0.6875 L 13.5 -14.359375 L 8 -14.359375 L 8 -0.6875 C 8 -0.226562 7.769531 0 7.3125 0 L 2.875 0 C 2.394531 0 2.15625 -0.226562 2.15625 -0.6875 L 2.15625 -33.71875 C 2.15625 -34.175781 2.394531 -34.40625 2.875 -34.40625 L 7.3125 -34.40625 C 7.769531 -34.40625 8 -34.175781 8 -33.71875 L 8 -20.03125 Z M 13.5 -20.03125 "/></g></g><g style="fill:#ffffff;fill-opacity:1;"><g transform="translate(208.258312, 203.999987)"><path style="stroke:none" d="M 2.15625 -6.1875 L 2.15625 -28.203125 C 2.15625 -30.242188 2.679688 -31.785156 3.734375 -32.828125 C 4.796875 -33.878906 6.332031 -34.40625 8.34375 -34.40625 L 13.15625 -34.40625 C 15.195312 -34.40625 16.738281 -33.878906 17.78125 -32.828125 C 18.820312 -31.785156 19.34375 -30.242188 19.34375 -28.203125 L 19.34375 -6.1875 C 19.34375 -4.1875 18.820312 -2.65625 17.78125 -1.59375 C 16.738281 -0.53125 15.195312 0 13.15625 0 L 8.34375 0 C 6.332031 0 4.796875 -0.53125 3.734375 -1.59375 C 2.679688 -2.65625 2.15625 -4.1875 2.15625 -6.1875 Z M 9.59375 -5.546875 L 12.078125 -5.546875 C 13.222656 -5.546875 13.796875 -6.117188 13.796875 -7.265625 L 13.796875 -27.140625 C 13.796875 -28.285156 13.222656 -28.859375 12.078125 -28.859375 L 9.59375 -28.859375 C 8.445312 -28.859375 7.875 -28.285156 7.875 -27.140625 L 7.875 -7.265625 C 7.875 -6.117188 8.445312 -5.546875 9.59375 -5.546875 Z M 9.59375 -5.546875 "/></g></g><g style="fill:#ffffff;fill-opacity:1;"><g transform="translate(229.756403, 203.999987)"><path style="stroke:none" d="M 8.34375 -34.40625 L 13.15625 -34.40625 C 15.195312 -34.40625 16.738281 -33.878906 17.78125 -32.828125 C 18.820312 -31.785156 19.34375 -30.242188 19.34375 -28.203125 L 19.34375 -23.65625 C 19.34375 -23.195312 19.113281 -22.96875 18.65625 -22.96875 L 14.1875 -22.96875 C 13.726562 -22.96875 13.5 -23.195312 13.5 -23.65625 L 13.5 -27 C 13.5 -28.144531 12.925781 -28.71875 11.78125 -28.71875 L 9.71875 -28.71875 C 8.570312 -28.71875 8 -28.144531 8 -27 L 8 -21.0625 L 18.234375 -17.71875 C 18.972656 -17.40625 19.34375 -16.875 19.34375 -16.125 L 19.34375 -6.1875 C 19.34375 -4.1875 18.820312 -2.65625 17.78125 -1.59375 C 16.738281 -0.53125 15.195312 0 13.15625 0 L 8.34375 0 C 6.332031 0 4.796875 -0.53125 3.734375 -1.59375 C 2.679688 -2.65625 2.15625 -4.1875 2.15625 -6.1875 L 2.15625 -10.703125 C 2.15625 -11.160156 2.382812 -11.390625 2.84375 -11.390625 L 7.3125 -11.390625 C 7.769531 -11.390625 8 -11.160156 8 -10.703125 L 8 -7.390625 C 8 -6.242188 8.570312 -5.671875 9.71875 -5.671875 L 11.78125 -5.671875 C 12.925781 -5.671875 13.5 -6.242188 13.5 -7.390625 L 13.5 -13.109375 L 3.3125 -16.46875 C 2.539062 -16.726562 2.15625 -17.257812 2.15625 -18.0625 L 2.15625 -28.203125 C 2.15625 -30.242188 2.679688 -31.785156 3.734375 -32.828125 C 4.796875 -33.878906 6.332031 -34.40625 8.34375 -34.40625 Z M 8.34375 -34.40625 "/></g></g><g style="fill:#ffffff;fill-opacity:1;"><g transform="translate(251.254472, 203.999987)"><path style="stroke:none" d="M 2.15625 -0.6875 L 2.15625 -33.71875 C 2.15625 -34.175781 2.382812 -34.40625 2.84375 -34.40625 L 13.15625 -34.40625 C 15.195312 -34.40625 16.738281 -33.878906 17.78125 -32.828125 C 18.820312 -31.785156 19.34375 -30.242188 19.34375 -28.203125 L 19.34375 -17.71875 C 19.34375 -15.707031 18.820312 -14.171875 17.78125 -13.109375 C 16.738281 -12.054688 15.195312 -11.53125 13.15625 -11.53125 L 8 -11.53125 L 8 -0.6875 C 8 -0.226562 7.769531 0 7.3125 0 L 2.84375 0 C 2.382812 0 2.15625 -0.226562 2.15625 -0.6875 Z M 8 -17.203125 L 11.78125 -17.203125 C 12.925781 -17.203125 13.5 -17.773438 13.5 -18.921875 L 13.5 -27 C 13.5 -28.144531 12.925781 -28.71875 11.78125 -28.71875 L 8 -28.71875 Z M 8 -17.203125 "/></g></g><g style="fill:#ffffff;fill-opacity:1;"><g transform="translate(272.75254, 203.999987)"><path style="stroke:none" d="M 2.84375 -34.40625 L 7.3125 -34.40625 C 7.769531 -34.40625 8 -34.175781 8 -33.71875 L 8 -0.6875 C 8 -0.226562 7.769531 0 7.3125 0 L 2.84375 0 C 2.382812 0 2.15625 -0.226562 2.15625 -0.6875 L 2.15625 -33.71875 C 2.15625 -34.175781 2.382812 -34.40625 2.84375 -34.40625 Z M 2.84375 -34.40625 "/></g></g><g style="fill:#ffffff;fill-opacity:1;"><g transform="translate(282.899649, 203.999987)"><path style="stroke:none" d="M 1.984375 -34.40625 L 17.796875 -34.40625 C 18.253906 -34.40625 18.484375 -34.175781 18.484375 -33.71875 L 18.484375 -29.40625 C 18.484375 -28.945312 18.253906 -28.71875 17.796875 -28.71875 L 12.8125 -28.71875 L 12.8125 -0.6875 C 12.8125 -0.226562 12.582031 0 12.125 0 L 7.65625 0 C 7.195312 0 6.96875 -0.226562 6.96875 -0.6875 L 6.96875 -28.71875 L 1.984375 -28.71875 C 1.523438 -28.71875 1.296875 -28.945312 1.296875 -29.40625 L 1.296875 -33.71875 C 1.296875 -34.175781 1.523438 -34.40625 1.984375 -34.40625 Z M 1.984375 -34.40625 "/></g></g><g style="fill:#ffffff;fill-opacity:1;"><g transform="translate(298.808126, 203.999987)"><path style="stroke:none" d="M 22.875 0 L 18.3125 0 C 17.945312 0 17.71875 -0.203125 17.625 -0.609375 L 16.421875 -6.875 L 8.765625 -6.875 L 7.609375 -0.609375 C 7.523438 -0.203125 7.296875 0 6.921875 0 L 2.328125 0 C 1.804688 0 1.617188 -0.242188 1.765625 -0.734375 L 8.90625 -33.796875 C 8.988281 -34.203125 9.226562 -34.40625 9.625 -34.40625 L 15.609375 -34.40625 C 16.015625 -34.40625 16.257812 -34.203125 16.34375 -33.796875 L 23.484375 -0.734375 C 23.566406 -0.242188 23.363281 0 22.875 0 Z M 15.34375 -11.875 L 12.59375 -26.875 L 9.84375 -11.875 Z M 15.34375 -11.875 "/></g></g><g style="fill:#ffffff;fill-opacity:1;"><g transform="translate(324.003872, 203.999987)"><path style="stroke:none" d="M 8 -5.671875 L 8 -33.71875 C 8 -34.175781 7.769531 -34.40625 7.3125 -34.40625 L 2.84375 -34.40625 C 2.382812 -34.40625 2.15625 -34.175781 2.15625 -33.71875 L 2.15625 -0.6875 C 2.15625 -0.226562 2.382812 0 2.84375 0 L 18.234375 0 C 18.691406 0 18.921875 -0.226562 18.921875 -0.6875 L 18.921875 -4.984375 C 18.921875 -5.441406 18.691406 -5.671875 18.234375 -5.671875 Z M 8 -5.671875 "/></g></g></g></svg>